<?xml version="1.0" ?><svg id="icons" viewBox="0 0 64 64" xmlns="http://www.w3.org/2000/svg"><defs><style>.cls-1{fill:#1b1c20;}</style></defs><title/><path class="cls-1" d="M38.52,59.5H18.24A1.29,1.29,0,0,1,17,58.21V23.54a1.3,1.3,0,0,1,.36-.9L27.88,11.75a1.29,1.29,0,0,1,1-.4,1.31,1.31,0,0,1,.94.44l9.71,10.89a1.3,1.3,0,0,1,.33.86V58.21A1.3,1.3,0,0,1,38.52,59.5Zm-19-2.59H37.23V24l-8.45-9.49-9.24,9.52Z"/><path class="cls-1" d="M28.82,14a1.26,1.26,0,0,1-.75-.24,1.28,1.28,0,0,1-.55-1.06V7.6a1.29,1.29,0,0,1,.83-1.21l5.92-2.25A1.29,1.29,0,0,1,36,5.35v5.14a1.3,1.3,0,0,1-.85,1.22l-5.92,2.16A1.32,1.32,0,0,1,28.82,14ZM30.11,8.5v2.3l3.33-1.22V7.23Z"/><path class="cls-1" d="M38.52,59.5a1.29,1.29,0,0,1-.86-2.26l4.45-4,.07-32.89-8.39-8.9a1.3,1.3,0,0,1,1.89-1.78l8.74,9.27a1.33,1.33,0,0,1,.36.9l-.08,34a1.28,1.28,0,0,1-.43,1l-4.88,4.39A1.31,1.31,0,0,1,38.52,59.5Z"/><path class="cls-1" d="M38.26,24.81h-20a1.3,1.3,0,0,1,0-2.6H37.88l4.19-2.69a1.3,1.3,0,0,1,1.4,2.19L39,24.6A1.36,1.36,0,0,1,38.26,24.81Z"/></svg>